<?xml version="1.0" encoding="UTF-8" standalone="no"?>
<svg
   xmlns:dc="http://purl.org/dc/elements/1.1/"
   xmlns:cc="http://creativecommons.org/ns#"
   xmlns:rdf="http://www.w3.org/1999/02/22-rdf-syntax-ns#"
   xmlns:svg="http://www.w3.org/2000/svg"
   xmlns="http://www.w3.org/2000/svg"
   viewBox="0 0 637.33331 152"
   height="152"
   width="637.33331"
   xml:space="preserve"
   id="svg2"
   version="1.1"><metadata
     id="metadata8"><rdf:RDF><cc:Work
         rdf:about=""><dc:format>image/svg+xml</dc:format><dc:type
           rdf:resource="http://purl.org/dc/dcmitype/StillImage" /></cc:Work></rdf:RDF></metadata><defs
     id="defs6"><clipPath
       id="clipPath18"
       clipPathUnits="userSpaceOnUse"><path
         id="path16"
         d="M 0,114 H 478 V 0 H 0 Z" /></clipPath></defs><g
     transform="matrix(1.3333333,0,0,-1.3333333,0,152)"
     id="g10"><g
       id="g12"><g
         clip-path="url(#clipPath18)"
         id="g14"><g
           transform="translate(115.6191,10.8232)"
           id="g20"><path
             id="path22"
             style="fill:#005daa;fill-opacity:1;fill-rule:nonzero;stroke:none"
             d="m 0,0 c 1.058,0 1.203,0 1.203,0.874 v 2.054 c 0,2.348 -0.145,2.47 -1.576,2.699 L -1.019,5.732 C -1.247,5.899 -1.207,6.479 -0.935,6.584 0.373,6.5 1.391,6.479 2.471,6.479 3.529,6.479 4.564,6.5 5.873,6.584 6.145,6.479 6.167,5.899 5.938,5.732 L 5.315,5.627 C 3.88,5.398 3.735,5.276 3.735,2.928 v -7.559 c 0,-2.335 0.145,-2.501 1.58,-2.712 L 6.083,-7.436 C 6.312,-7.606 6.268,-8.186 6,-8.283 c -1.392,0.071 -2.493,0.097 -3.529,0.097 -1.08,0 -2.098,-0.026 -3.406,-0.097 -0.272,0.097 -0.312,0.677 -0.084,0.847 l 0.646,0.093 c 1.431,0.237 1.576,0.377 1.576,2.712 v 2.66 c 0,0.852 -0.062,0.869 -1.203,0.869 h -5.877 c -1.142,0 -1.203,-0.017 -1.203,-0.869 v -2.66 c 0,-2.335 0.145,-2.541 1.554,-2.712 l 0.917,-0.093 c 0.229,-0.17 0.207,-0.75 -0.066,-0.847 -1.536,0.071 -2.633,0.097 -3.674,0.097 -1.079,0 -2.115,-0.026 -3.155,-0.097 -0.25,0.097 -0.29,0.677 -0.062,0.847 l 0.373,0.093 c 1.414,0.377 1.58,0.377 1.58,2.712 v 7.559 c 0,2.348 -0.149,2.514 -1.58,2.699 l -0.768,0.105 c -0.228,0.167 -0.206,0.747 0.062,0.852 1.435,-0.084 2.471,-0.105 3.55,-0.105 1.058,0 2.099,0.021 3.262,0.105 0.268,-0.105 0.312,-0.685 0.083,-0.852 L -5.526,5.627 C -6.917,5.359 -7.08,5.276 -7.08,2.928 V 0.874 C -7.08,0 -6.935,0 -5.877,0 H 0" /></g><g
           transform="translate(128.3872,13.751)"
           id="g24"><path
             id="path26"
             style="fill:#005daa;fill-opacity:1;fill-rule:nonzero;stroke:none"
             d="M 0,0 C 0,2.348 -0.127,2.432 -1.391,2.699 L -1.87,2.805 C -2.098,2.949 -2.054,3.529 -1.808,3.656 -0.83,3.573 0.206,3.551 1.308,3.551 H 6.04 c 1.474,0 2.826,0.022 3.116,0.105 C 9.195,3.239 9.362,1.663 9.529,0.206 9.384,-0.062 8.866,-0.105 8.656,0.145 8.449,1.018 8.265,1.453 8.054,1.764 7.514,2.576 6.022,2.576 5.21,2.576 H 3.735 c -1.163,0 -1.18,-0.044 -1.18,-1.079 v -3.758 c 0,-0.605 0,-0.667 0.623,-0.667 h 1.575 c 1.765,0 1.932,0.272 2.204,1.269 l 0.162,0.64 c 0.167,0.25 0.668,0.211 0.834,-0.061 -0.066,-0.974 -0.066,-1.576 -0.066,-2.366 0,-0.829 0,-1.452 0.066,-2.431 C 7.787,-6.145 7.286,-6.189 7.119,-5.939 L 6.957,-5.293 C 6.685,-4.275 6.518,-4.029 4.753,-4.029 H 3.178 c -0.623,0 -0.623,-0.101 -0.623,-0.769 v -2.427 c 0,-1.018 0.061,-2.058 0.351,-2.436 0.311,-0.338 0.913,-0.465 2.804,-0.465 2.16,0 3.385,0.092 4.337,2.796 0.25,0.228 0.79,0.166 0.873,-0.123 -0.167,-1.431 -0.623,-3.116 -0.996,-3.757 -2.098,0.07 -3.884,0.096 -5.667,0.096 H 1.308 c -1.058,0 -2.098,-0.026 -3.718,-0.096 -0.267,0.096 -0.289,0.676 -0.061,0.847 l 0.913,0.092 C -0.127,-10.1 0,-9.894 0,-7.559 V 0" /></g><g
           transform="translate(150.623,8.9531)"
           id="g28"><path
             id="path30"
             style="fill:#005daa;fill-opacity:1;fill-rule:nonzero;stroke:none"
             d="m 0,0 c 0.874,0 0.975,0.066 0.601,1.062 l -1.036,2.862 c -0.272,0.768 -0.395,1.04 -0.5,1.207 H -0.996 C -1.102,5.004 -1.247,4.692 -1.536,3.99 L -2.739,0.979 C -3.112,0.066 -3.033,0 -2.304,0 Z m -2.638,-1.08 c -0.768,0 -0.869,-0.039 -1.141,-0.807 l -0.768,-2.159 c -0.373,-1.08 -0.268,-1.216 0.373,-1.352 l 0.895,-0.167 c 0.268,-0.171 0.246,-0.777 -0.105,-0.848 -0.83,0.071 -1.681,0.097 -2.638,0.097 -0.935,0 -1.721,-0.066 -2.322,-0.097 -0.311,0.137 -0.311,0.677 -0.083,0.848 l 0.768,0.167 c 1.035,0.236 1.409,0.605 2.076,2.225 l 3.217,7.764 c 0.562,1.392 0.79,2.2 0.852,2.845 0.601,0.25 1.246,0.891 1.409,1.286 C 0.167,8.827 0.373,8.766 0.435,8.555 0.562,8.204 1.102,6.461 1.87,4.403 l 3.011,-8.076 c 0.395,-1.12 0.706,-1.563 1.887,-1.8 l 0.54,-0.092 C 7.62,-5.736 7.536,-6.342 7.207,-6.413 6.355,-6.342 5.587,-6.316 4.442,-6.316 3.239,-6.316 2.265,-6.342 1.435,-6.413 1.102,-6.316 1.08,-5.706 1.37,-5.565 l 0.667,0.092 c 0.869,0.145 0.829,0.347 0.434,1.387 L 1.664,-1.887 C 1.392,-1.119 1.308,-1.08 0.54,-1.08 h -3.178" /></g><g
           transform="translate(163.8696,13.751)"
           id="g32"><path
             id="path34"
             style="fill:#005daa;fill-opacity:1;fill-rule:nonzero;stroke:none"
             d="M 0,0 C 0,2.348 -0.145,2.471 -1.576,2.699 L -2.199,2.805 C -2.449,2.971 -2.41,3.551 -2.138,3.656 -0.83,3.573 0.207,3.551 1.269,3.551 2.326,3.551 3.362,3.573 4.486,3.656 4.736,3.551 4.775,2.971 4.547,2.805 L 4.113,2.699 C 2.699,2.366 2.533,2.348 2.533,0 v -7.247 c 0,-1.058 0.061,-1.993 0.373,-2.344 0.294,-0.303 0.834,-0.535 2.576,-0.535 2.037,0 3.262,0.092 4.236,2.796 0.228,0.228 0.768,0.166 0.873,-0.123 -0.167,-1.431 -0.645,-3.116 -0.996,-3.757 -2.12,0.07 -3.885,0.096 -5.588,0.096 H 1.269 c -1.062,0 -2.099,-0.026 -3.407,-0.096 -0.272,0.096 -0.311,0.676 -0.061,0.847 l 0.623,0.092 C -0.145,-10.034 0,-9.894 0,-7.559 V 0" /></g><g
           transform="translate(181.769,15.4316)"
           id="g36"><path
             id="path38"
             style="fill:#005daa;fill-opacity:1;fill-rule:nonzero;stroke:none"
             d="m 0,0 c 0,0.896 -0.022,0.896 -0.707,0.896 h -1.018 c -2.054,0 -2.906,-0.211 -3.718,-2.533 -0.329,-0.211 -0.702,-0.105 -0.829,0.162 0.373,1.457 0.729,3.156 0.895,3.99 0.145,0.145 0.474,0.145 0.602,0 C -4.736,1.848 -4.28,1.87 -2.928,1.87 h 9.279 c 1.247,0 1.475,0.022 1.747,0.645 C 8.326,2.66 8.594,2.577 8.699,2.41 8.427,1.537 8.282,-0.246 8.344,-1.536 8.221,-1.804 7.642,-1.848 7.514,-1.576 7.286,0.624 6.413,0.896 4.42,0.896 H 3.279 c -0.646,0 -0.724,0 -0.724,-0.896 v -9.239 c 0,-2.335 0.122,-2.541 1.553,-2.713 l 0.913,-0.092 c 0.233,-0.171 0.189,-0.75 -0.079,-0.847 -1.374,0.07 -2.616,0.097 -3.656,0.097 -1.08,0 -2.283,-0.027 -3.696,-0.097 -0.268,0.097 -0.29,0.676 -0.061,0.847 l 0.913,0.092 C -0.127,-11.78 0,-11.574 0,-9.239 V 0" /></g><g
           transform="translate(206.186,10.8232)"
           id="g40"><path
             id="path42"
             style="fill:#005daa;fill-opacity:1;fill-rule:nonzero;stroke:none"
             d="m 0,0 c 1.058,0 1.181,0 1.181,0.874 v 2.054 c 0,2.348 -0.123,2.47 -1.554,2.699 L -1.018,5.732 C -1.247,5.899 -1.225,6.479 -0.957,6.584 0.352,6.5 1.392,6.479 2.471,6.479 3.529,6.479 4.565,6.5 5.873,6.584 6.123,6.479 6.167,5.899 5.939,5.732 L 5.293,5.627 C 3.863,5.398 3.735,5.276 3.735,2.928 v -7.559 c 0,-2.335 0.128,-2.501 1.558,-2.712 l 0.769,-0.093 c 0.25,-0.17 0.206,-0.75 -0.062,-0.847 -1.413,0.071 -2.515,0.097 -3.529,0.097 -1.079,0 -2.119,-0.026 -3.428,-0.097 -0.268,0.097 -0.29,0.677 -0.061,0.847 l 0.645,0.093 c 1.431,0.237 1.554,0.377 1.554,2.712 v 2.66 c 0,0.852 -0.061,0.869 -1.181,0.869 h -5.899 c -1.119,0 -1.203,-0.017 -1.203,-0.869 v -2.66 c 0,-2.335 0.145,-2.541 1.576,-2.712 l 0.918,-0.093 c 0.228,-0.17 0.184,-0.75 -0.066,-0.847 -1.554,0.071 -2.656,0.097 -3.696,0.097 -1.058,0 -2.094,-0.026 -3.134,-0.097 -0.268,0.097 -0.289,0.677 -0.061,0.847 l 0.373,0.093 c 1.391,0.377 1.558,0.377 1.558,2.712 v 7.559 c 0,2.348 -0.128,2.514 -1.558,2.699 l -0.768,0.105 c -0.25,0.167 -0.207,0.747 0.061,0.852 1.435,-0.084 2.471,-0.105 3.529,-0.105 1.08,0 2.12,0.021 3.283,0.105 0.268,-0.105 0.312,-0.685 0.062,-0.852 L -5.526,5.627 C -6.935,5.359 -7.102,5.276 -7.102,2.928 V 0.874 C -7.102,0 -6.957,0 -5.899,0 H 0" /></g><g
           transform="translate(229.686,9.5371)"
           id="g44"><path
             id="path46"
             style="fill:#005daa;fill-opacity:1;fill-rule:nonzero;stroke:none"
             d="m 0,0 c -1.598,0.852 -2.967,2.16 -2.967,4.047 0,2.471 1.87,4.196 5.232,4.196 1.185,0 1.971,-0.312 3.116,-0.5 C 5.649,7.163 5.877,5.877 5.855,4.42 5.754,4.152 5.153,4.108 4.986,4.358 4.714,5.543 3.845,7.264 1.87,7.264 c -1.971,0 -2.7,-1.159 -2.7,-2.304 0,-1.225 0.896,-1.949 2.244,-2.678 L 3.468,1.203 c 1.207,-0.601 2.721,-2.015 2.721,-4.275 0,-2.638 -2.138,-4.298 -5.46,-4.298 -2.015,0 -3.362,0.712 -3.841,1.05 -0.289,0.474 -0.706,1.69 -0.706,3.476 0.144,0.329 0.645,0.373 0.873,0.061 0.268,-1.202 1.742,-3.603 3.986,-3.603 1.702,0 2.804,0.869 2.804,2.418 0,1.08 -0.439,2.203 -2.326,3.178 L 0,0" /></g><g
           transform="translate(253.875,17.1348)"
           id="g48"><path
             id="path50"
             style="fill:#005daa;fill-opacity:1;fill-rule:nonzero;stroke:none"
             d="m 0,0 c 0,-0.707 0.083,-2.366 0.294,-3.718 -0.127,-0.267 -0.623,-0.351 -0.873,-0.061 -0.501,1.848 -1.62,3.446 -4.631,3.446 -2.866,0 -5.71,-1.971 -5.71,-6.558 0,-4.529 2.866,-7.093 6,-7.093 3.156,0 4.446,2.524 4.819,3.415 0.167,0.294 0.707,0.294 0.851,-0.04 -0.144,-1.496 -0.684,-3.046 -1.079,-3.647 -0.979,-0.176 -2.204,-0.711 -4.53,-0.711 -2.094,0 -4.169,0.373 -5.855,1.549 -1.804,1.251 -3.173,3.305 -3.173,6.005 0,2.743 1.119,4.775 2.783,6.083 1.637,1.308 3.941,1.976 6.518,1.976 C -2.405,0.646 -0.268,0 0,0" /></g><g
           transform="translate(260.604,13.751)"
           id="g52"><path
             id="path54"
             style="fill:#005daa;fill-opacity:1;fill-rule:nonzero;stroke:none"
             d="M 0,0 C 0,2.348 -0.123,2.471 -1.576,2.699 L -2.199,2.805 C -2.427,2.971 -2.41,3.551 -2.138,3.656 -0.83,3.573 0.206,3.551 1.286,3.551 2.348,3.551 3.362,3.573 4.67,3.656 4.942,3.551 4.981,2.971 4.753,2.805 L 4.112,2.699 C 2.677,2.471 2.532,2.348 2.532,0 v -7.559 c 0,-2.335 0.145,-2.475 1.58,-2.712 l 0.641,-0.092 c 0.228,-0.171 0.189,-0.751 -0.083,-0.847 -1.264,0.07 -2.366,0.096 -3.384,0.096 -1.08,0 -2.116,-0.026 -3.424,-0.096 -0.272,0.096 -0.289,0.676 -0.061,0.847 l 0.623,0.092 C -0.123,-10.034 0,-9.894 0,-7.559 V 0" /></g><g
           transform="translate(272.1079,13.751)"
           id="g56"><path
             id="path58"
             style="fill:#005daa;fill-opacity:1;fill-rule:nonzero;stroke:none"
             d="M 0,0 C 0,2.348 -0.127,2.432 -1.392,2.699 L -1.87,2.805 C -2.098,2.949 -2.076,3.529 -1.809,3.656 -0.834,3.573 0.207,3.551 1.308,3.551 H 6.04 c 1.475,0 2.826,0.022 3.116,0.105 C 9.195,3.239 9.362,1.663 9.529,0.206 9.384,-0.062 8.866,-0.105 8.656,0.145 8.449,1.018 8.261,1.453 8.054,1.764 7.515,2.576 6.018,2.576 5.21,2.576 H 3.735 C 2.572,2.576 2.55,2.532 2.55,1.497 v -3.758 c 0,-0.605 0,-0.667 0.623,-0.667 h 1.58 c 1.765,0 1.932,0.272 2.2,1.269 l 0.166,0.64 c 0.167,0.25 0.668,0.211 0.83,-0.061 -0.061,-0.974 -0.061,-1.576 -0.061,-2.366 0,-0.829 0,-1.452 0.061,-2.431 -0.162,-0.268 -0.663,-0.312 -0.83,-0.062 l -0.166,0.646 c -0.268,1.018 -0.435,1.264 -2.2,1.264 H 3.173 C 2.55,-4.029 2.55,-4.13 2.55,-4.798 v -2.427 c 0,-1.018 0.066,-2.058 0.356,-2.436 0.311,-0.338 0.913,-0.465 2.8,-0.465 2.142,0 3.389,0.092 4.363,2.796 0.228,0.228 0.746,0.166 0.851,-0.123 -0.167,-1.431 -0.623,-3.116 -0.996,-3.757 -2.098,0.07 -3.884,0.096 -5.671,0.096 H 1.308 c -1.062,0 -2.098,-0.026 -3.696,-0.096 -0.294,0.096 -0.311,0.676 -0.083,0.847 l 0.913,0.092 C -0.127,-10.1 0,-9.894 0,-7.559 V 0" /></g><g
           transform="translate(300.4053,12.0918)"
           id="g60"><path
             id="path62"
             style="fill:#005daa;fill-opacity:1;fill-rule:nonzero;stroke:none"
             d="m 0,0 c 0,3.384 -0.185,4.275 -1.431,4.358 l -1.08,0.106 C -2.739,4.67 -2.699,5.148 -2.427,5.315 -1.203,5.232 -0.435,5.21 0.54,5.21 1.519,5.21 2.243,5.232 3.301,5.315 3.573,5.148 3.573,4.63 3.345,4.464 L 2.348,4.358 C 1.475,4.275 1.207,3.34 1.207,0 v -5.671 c 0,-0.663 0,-3.411 0.101,-3.911 -0.101,-0.206 -0.395,-0.377 -0.707,-0.312 -0.351,0.479 -1.036,1.19 -3.112,3.455 l -5.065,5.46 c -1.268,1.352 -2.142,2.243 -2.576,2.599 -0.145,0 -0.145,-0.356 -0.145,-1.414 v -4.464 c 0,-3.366 0.206,-4.244 1.453,-4.354 l 1.057,-0.092 c 0.273,-0.206 0.211,-0.685 -0.061,-0.847 -1.246,0.07 -2.015,0.096 -2.967,0.096 -0.979,0 -1.602,-0.026 -2.783,-0.096 -0.272,0.136 -0.272,0.676 -0.022,0.847 l 0.996,0.092 c 0.874,0.11 1.142,1.031 1.142,4.354 v 6.062 c 0,1.102 -0.04,1.58 -0.707,2.098 -0.268,0.189 -0.891,0.395 -1.242,0.456 l -0.501,0.106 c -0.228,0.206 -0.228,0.724 0.062,0.851 1.29,-0.105 2.182,-0.105 2.888,-0.105 0.457,0 0.935,0.022 1.33,0.105 0.685,-1.29 1.909,-2.743 3.279,-4.152 l 3.134,-3.283 c 0.728,-0.746 2.677,-2.866 3.054,-3.156 C 0,-5.192 0,-4.714 0,-3.907 V 0" /></g><g
           transform="translate(320.8984,17.1348)"
           id="g64"><path
             id="path66"
             style="fill:#005daa;fill-opacity:1;fill-rule:nonzero;stroke:none"
             d="m 0,0 c 0,-0.707 0.105,-2.366 0.29,-3.718 -0.123,-0.267 -0.623,-0.351 -0.869,-0.061 -0.479,1.848 -1.62,3.446 -4.631,3.446 -2.866,0 -5.71,-1.971 -5.71,-6.558 0,-4.529 2.866,-7.093 6,-7.093 3.156,0 4.441,2.524 4.815,3.415 0.167,0.294 0.707,0.294 0.873,-0.04 -0.166,-1.496 -0.706,-3.046 -1.101,-3.647 -0.975,-0.176 -2.221,-0.711 -4.526,-0.711 -2.098,0 -4.174,0.373 -5.877,1.549 -1.782,1.251 -3.156,3.305 -3.156,6.005 0,2.743 1.124,4.775 2.805,6.083 1.642,1.308 3.946,1.976 6.5,1.976 C -2.41,0.646 -0.268,0 0,0" /></g><g
           transform="translate(327.772,13.751)"
           id="g68"><path
             id="path70"
             style="fill:#005daa;fill-opacity:1;fill-rule:nonzero;stroke:none"
             d="M 0,0 C 0,2.348 -0.145,2.432 -1.413,2.699 L -1.87,2.805 C -2.12,2.949 -2.076,3.529 -1.808,3.656 -0.852,3.573 0.185,3.551 1.286,3.551 h 4.736 c 1.492,0 2.822,0.022 3.112,0.105 C 9.178,3.239 9.34,1.663 9.507,0.206 9.384,-0.062 8.844,-0.105 8.638,0.145 8.427,1.018 8.243,1.453 8.032,1.764 7.514,2.576 6,2.576 5.188,2.576 H 3.735 c -1.18,0 -1.202,-0.044 -1.202,-1.079 v -3.758 c 0,-0.605 0,-0.667 0.623,-0.667 h 1.575 c 1.765,0 1.932,0.272 2.204,1.269 l 0.167,0.64 C 7.264,-0.769 7.765,-0.808 7.953,-1.08 7.87,-2.054 7.87,-2.656 7.87,-3.446 c 0,-0.829 0,-1.452 0.083,-2.431 C 7.765,-6.145 7.264,-6.189 7.102,-5.939 L 6.935,-5.293 C 6.663,-4.275 6.496,-4.029 4.731,-4.029 H 3.156 c -0.623,0 -0.623,-0.101 -0.623,-0.769 v -2.427 c 0,-1.018 0.061,-2.058 0.351,-2.436 0.311,-0.338 0.913,-0.465 2.826,-0.465 2.116,0 3.363,0.092 4.337,2.796 0.228,0.228 0.75,0.166 0.873,-0.123 -0.166,-1.431 -0.645,-3.116 -1.018,-3.757 -2.098,0.07 -3.88,0.096 -5.666,0.096 h -2.95 c -1.057,0 -2.098,-0.026 -3.696,-0.096 -0.267,0.096 -0.311,0.676 -0.083,0.847 l 0.913,0.092 C -0.145,-10.1 0,-9.894 0,-7.559 V 0" /></g><g
           transform="translate(346.356,9.5371)"
           id="g72"><path
             id="path74"
             style="fill:#005daa;fill-opacity:1;fill-rule:nonzero;stroke:none"
             d="m 0,0 c -1.602,0.852 -2.972,2.16 -2.972,4.047 0,2.471 1.87,4.196 5.233,4.196 1.163,0 1.975,-0.312 3.116,-0.5 C 5.645,7.163 5.873,5.877 5.851,4.42 5.75,4.152 5.148,4.108 4.96,4.358 4.709,5.543 3.841,7.264 1.866,7.264 c -1.971,0 -2.7,-1.159 -2.7,-2.304 0,-1.225 0.896,-1.949 2.221,-2.678 L 3.468,1.203 c 1.202,-0.601 2.717,-2.015 2.717,-4.275 0,-2.638 -2.16,-4.298 -5.439,-4.298 -2.058,0 -3.384,0.712 -3.862,1.05 -0.29,0.474 -0.707,1.69 -0.707,3.476 0.145,0.329 0.645,0.373 0.873,0.061 0.268,-1.202 1.743,-3.603 3.986,-3.603 1.703,0 2.805,0.869 2.805,2.418 0,1.08 -0.439,2.203 -2.349,3.178 L 0,0" /></g><g
           transform="translate(380.1968,17.1348)"
           id="g76"><path
             id="path78"
             style="fill:#005daa;fill-opacity:1;fill-rule:nonzero;stroke:none"
             d="m 0,0 c 0,-0.707 0.083,-2.366 0.29,-3.718 -0.145,-0.267 -0.623,-0.351 -0.869,-0.061 -0.501,1.848 -1.642,3.446 -4.631,3.446 -2.888,0 -5.71,-1.971 -5.71,-6.558 0,-4.529 2.866,-7.093 6,-7.093 3.134,0 4.442,2.524 4.815,3.415 0.149,0.294 0.689,0.294 0.851,-0.04 -0.162,-1.496 -0.702,-3.046 -1.079,-3.647 -0.975,-0.176 -2.221,-0.711 -4.526,-0.711 -2.098,0 -4.174,0.373 -5.877,1.549 -1.804,1.251 -3.173,3.305 -3.173,6.005 0,2.743 1.141,4.775 2.8,6.083 1.642,1.308 3.946,1.976 6.523,1.976 C -2.41,0.646 -0.268,0 0,0" /></g><g
           transform="translate(387.0483,13.751)"
           id="g80"><path
             id="path82"
             style="fill:#005daa;fill-opacity:1;fill-rule:nonzero;stroke:none"
             d="M 0,0 C 0,2.348 -0.123,2.432 -1.391,2.699 L -1.848,2.805 C -2.098,2.949 -2.076,3.529 -1.786,3.656 -0.83,3.573 0.207,3.551 1.308,3.551 h 4.736 c 1.475,0 2.8,0.022 3.112,0.105 C 9.2,3.239 9.367,1.663 9.529,0.206 9.384,-0.062 8.844,-0.105 8.66,0.145 8.45,1.018 8.243,1.453 8.059,1.764 7.519,2.576 6.022,2.576 5.21,2.576 H 3.74 C 2.577,2.576 2.533,2.532 2.533,1.497 v -3.758 c 0,-0.605 0,-0.667 0.645,-0.667 h 1.576 c 1.764,0 1.931,0.272 2.203,1.269 l 0.167,0.64 c 0.162,0.25 0.663,0.211 0.83,-0.061 -0.062,-0.974 -0.062,-1.576 -0.062,-2.366 0,-0.829 0,-1.452 0.062,-2.431 C 7.787,-6.145 7.286,-6.189 7.124,-5.939 L 6.957,-5.293 C 6.685,-4.275 6.518,-4.029 4.754,-4.029 H 3.178 c -0.645,0 -0.645,-0.101 -0.645,-0.769 v -2.427 c 0,-1.018 0.083,-2.058 0.373,-2.436 0.311,-0.338 0.913,-0.465 2.804,-0.465 2.138,0 3.385,0.092 4.341,2.796 0.246,0.228 0.786,0.166 0.869,-0.123 -0.166,-1.431 -0.623,-3.116 -0.996,-3.757 -2.098,0.07 -3.88,0.096 -5.666,0.096 h -2.95 c -1.058,0 -2.098,-0.026 -3.718,-0.096 -0.245,0.096 -0.289,0.676 -0.061,0.847 l 0.913,0.092 C -0.123,-10.1 0,-9.894 0,-7.559 V 0" /></g><g
           transform="translate(415.3501,12.0918)"
           id="g84"><path
             id="path86"
             style="fill:#005daa;fill-opacity:1;fill-rule:nonzero;stroke:none"
             d="m 0,0 c 0,3.384 -0.21,4.275 -1.435,4.358 l -1.08,0.106 C -2.743,4.67 -2.721,5.148 -2.432,5.315 -1.207,5.232 -0.439,5.21 0.54,5.21 1.493,5.21 2.239,5.232 3.301,5.315 3.568,5.148 3.568,4.63 3.34,4.464 L 2.344,4.358 C 1.471,4.275 1.203,3.34 1.203,0 v -5.671 c 0,-0.663 0,-3.411 0.105,-3.911 -0.105,-0.206 -0.417,-0.377 -0.706,-0.312 -0.373,0.479 -1.041,1.19 -3.117,3.455 l -5.065,5.46 c -1.269,1.352 -2.138,2.243 -2.577,2.599 -0.122,0 -0.122,-0.356 -0.122,-1.414 v -4.464 c 0,-3.366 0.188,-4.244 1.43,-4.354 l 1.063,-0.092 c 0.267,-0.206 0.206,-0.685 -0.062,-0.847 -1.246,0.07 -1.997,0.096 -2.971,0.096 -0.974,0 -1.62,-0.026 -2.783,-0.096 -0.268,0.136 -0.268,0.676 -0.018,0.847 l 0.997,0.092 c 0.869,0.11 1.141,1.031 1.141,4.354 v 6.062 c 0,1.102 -0.044,1.58 -0.728,2.098 -0.251,0.189 -0.874,0.395 -1.204,0.456 l -0.517,0.106 c -0.233,0.206 -0.233,0.724 0.061,0.851 1.287,-0.105 2.177,-0.105 2.884,-0.105 0.456,0 0.935,0.022 1.33,0.105 0.663,-1.29 1.909,-2.743 3.261,-4.152 L -3.239,-2.12 C -2.515,-2.866 -0.583,-4.986 -0.21,-5.276 0,-5.192 0,-4.714 0,-3.907 V 0" /></g><g
           transform="translate(428.4302,15.4316)"
           id="g88"><path
             id="path90"
             style="fill:#005daa;fill-opacity:1;fill-rule:nonzero;stroke:none"
             d="m 0,0 c 0,0.896 -0.044,0.896 -0.707,0.896 h -1.04 c -2.032,0 -2.906,-0.211 -3.713,-2.533 -0.334,-0.211 -0.685,-0.105 -0.834,0.162 0.377,1.457 0.751,3.156 0.917,3.99 0.123,0.145 0.474,0.145 0.602,0 C -4.753,1.848 -4.28,1.87 -2.95,1.87 h 9.301 c 1.225,0 1.453,0.022 1.725,0.645 C 8.304,2.66 8.572,2.577 8.677,2.41 8.41,1.537 8.282,-0.246 8.344,-1.536 8.199,-1.804 7.642,-1.848 7.514,-1.576 7.286,0.624 6.395,0.896 4.402,0.896 H 3.279 c -0.641,0 -0.746,0 -0.746,-0.896 v -9.239 c 0,-2.335 0.144,-2.541 1.575,-2.713 l 0.896,-0.092 c 0.228,-0.171 0.206,-0.75 -0.062,-0.847 -1.374,0.07 -2.638,0.097 -3.678,0.097 -1.058,0 -2.283,-0.027 -3.674,-0.097 -0.267,0.097 -0.311,0.676 -0.061,0.847 l 0.891,0.092 C -0.127,-11.78 0,-11.574 0,-9.239 V 0" /></g><g
           transform="translate(445.4736,10.8848)"
           id="g92"><path
             id="path94"
             style="fill:#005daa;fill-opacity:1;fill-rule:nonzero;stroke:none"
             d="m 0,0 c 0,-0.852 0.044,-0.852 1.685,-0.852 2.177,0 3.301,0.896 3.301,3.222 0,1.681 -1.163,3.173 -3.511,3.173 C 0.25,5.543 0,5.482 0,4.591 Z m -2.533,2.471 c 0,2.181 -0.017,2.761 -0.807,2.866 l -0.935,0.145 c -0.25,0.022 -0.334,0.746 0,0.83 1.848,0.127 3.717,0.21 5.543,0.21 3.117,0 6.501,-0.522 6.501,-4.051 0,-2.177 -1.686,-3.134 -2.972,-3.634 -0.145,-0.123 -0.123,-0.33 0,-0.496 1.664,-2.844 3.134,-4.508 4.236,-5.399 0.601,-0.509 1.224,-0.676 1.764,-0.711 0.145,-0.141 0.145,-0.439 0,-0.544 -0.311,-0.105 -0.768,-0.171 -1.409,-0.171 -1.997,0 -3.2,0.645 -4.674,2.527 -0.83,1.081 -1.721,2.573 -2.427,3.652 -0.272,0.417 -0.812,0.54 -1.33,0.54 C 0.066,-1.765 0,-1.826 0,-2.305 v -2.387 c 0,-2.335 0.149,-2.502 1.58,-2.713 l 0.768,-0.092 c 0.228,-0.171 0.206,-0.751 -0.061,-0.847 -1.414,0.07 -2.516,0.096 -3.551,0.096 -1.058,0 -2.12,-0.026 -3.261,-0.096 -0.329,0.096 -0.373,0.707 -0.084,0.847 l 0.501,0.092 c 1.452,0.312 1.575,0.378 1.575,2.713 v 7.163" /></g><g
           transform="translate(462.0425,13.751)"
           id="g96"><path
             id="path98"
             style="fill:#005daa;fill-opacity:1;fill-rule:nonzero;stroke:none"
             d="M 0,0 C 0,2.348 -0.123,2.432 -1.409,2.699 L -1.865,2.805 C -2.093,2.949 -2.076,3.529 -1.804,3.656 -0.829,3.573 0.211,3.551 1.308,3.551 h 4.736 c 1.475,0 2.823,0.022 3.112,0.105 C 9.178,3.239 9.367,1.663 9.534,0.206 9.384,-0.062 8.867,-0.105 8.66,0.145 8.454,1.018 8.243,1.453 8.059,1.764 7.519,2.576 6.022,2.576 5.215,2.576 H 3.74 C 2.577,2.576 2.533,2.532 2.533,1.497 v -3.758 c 0,-0.605 0,-0.667 0.645,-0.667 h 1.58 c 1.765,0 1.927,0.272 2.199,1.269 l 0.167,0.64 c 0.167,0.25 0.663,0.211 0.83,-0.061 -0.062,-0.974 -0.062,-1.576 -0.062,-2.366 0,-0.829 0,-1.452 0.062,-2.431 -0.167,-0.268 -0.663,-0.312 -0.83,-0.062 l -0.167,0.646 c -0.272,1.018 -0.434,1.264 -2.199,1.264 h -1.58 c -0.645,0 -0.645,-0.101 -0.645,-0.769 v -2.427 c 0,-1.018 0.083,-2.058 0.378,-2.436 0.307,-0.338 0.912,-0.465 2.8,-0.465 2.137,0 3.384,0.092 4.363,2.796 0.228,0.228 0.768,0.166 0.847,-0.123 -0.163,-1.431 -0.619,-3.116 -0.997,-3.757 -2.093,0.07 -3.88,0.096 -5.688,0.096 H 1.308 c -1.079,0 -2.093,-0.026 -3.713,-0.096 -0.25,0.096 -0.294,0.676 -0.066,0.847 l 0.918,0.092 C -0.123,-10.1 0,-9.894 0,-7.559 V 0" /></g><path
           id="path100"
           style="fill:#8dc63f;fill-opacity:1;fill-rule:nonzero;stroke:none"
           d="M 278.275,34.485 H 471.827 V 32.396 H 278.275 Z" /><g
           transform="translate(252.2554,33.4365)"
           id="g102"><path
             id="path104"
             style="fill:#000000;fill-opacity:1;fill-rule:nonzero;stroke:none"
             d="M 0,0 H -147.974" /></g><path
           id="path106"
           style="fill:#8dc63f;fill-opacity:1;fill-rule:nonzero;stroke:none"
           d="M 104.282,34.485 H 252.26 V 32.396 H 104.282 Z" /><g
           transform="translate(105.4448,46.8062)"
           id="g108"><path
             id="path110"
             style="fill:#005daa;fill-opacity:1;fill-rule:nonzero;stroke:none"
             d="M 0,0 H -1.225 V 14.449 H 0.83 C 2.326,7.536 6.395,1.163 13.931,1.163 c 5.627,0 10.587,4.191 10.587,10.152 0,6.768 -5.894,8.055 -11.232,9.946 -1.409,0.518 -2.844,1.019 -4.257,1.453 -6.619,2.036 -9.903,7.124 -9.903,14.015 0,7.62 5.566,13.286 12.957,13.286 4.131,0 7.12,-1.014 10.381,-3.63 l 2.7,2.906 h 1.285 V 35.566 h -2.282 c -0.768,6.895 -5.192,12.623 -12.29,12.623 -4.569,0 -8.827,-3.406 -8.827,-8.265 0,-5.583 3.758,-6.162 8.182,-7.409 1.765,-0.5 3.195,-1.018 4.402,-1.369 1.431,-0.439 3.196,-0.935 4.693,-1.686 5.978,-2.883 8.115,-7.681 8.115,-14.221 0,-9.134 -5.833,-15.902 -15.011,-15.902 -3.34,0 -7.619,1.387 -10.108,3.713 L 0,0" /></g><g
           transform="translate(163.2686,53.0562)"
           id="g112"><path
             id="path114"
             style="fill:#005daa;fill-opacity:1;fill-rule:nonzero;stroke:none"
             d="m 0,0 h -0.229 c -1.992,-4.069 -5.833,-6.913 -10.441,-6.913 -6.834,0 -8.621,3.63 -8.621,7.058 v 20.972 h -4.626 v 1.803 c 3.568,-0.144 7.909,0.167 12.167,0.29 V 0.641 c 0,-2.967 -0.211,-5.232 3.423,-5.232 C -5.71,-4.591 0,-1.62 0,7.102 v 14.015 h -5.421 v 1.803 c 4.341,-0.144 8.682,0.167 12.957,0.29 V -4.007 h 4.982 V -5.815 C 8.304,-5.815 4.112,-5.587 0,-6.395 V 0" /></g><g
           transform="translate(192.356,69.459)"
           id="g116"><path
             id="path118"
             style="fill:#005daa;fill-opacity:1;fill-rule:nonzero;stroke:none"
             d="m 0,0 h 0.127 c 2.283,4.485 5.478,6.974 10.609,6.974 9.467,0 8.677,-6.768 8.677,-13.953 V -20.41 h 4.486 v -1.808 H 7.391 v 1.808 h 4.486 v 13.08 c 0,6.746 0.706,11.688 -4.047,11.688 -3.077,0 -5.855,-3.34 -6.917,-6.039 C 0,-4.069 0,-7.414 0,-10.82 v -9.59 h 4.463 v -1.808 h -16.859 v 1.808 h 4.837 V 4.714 h -4.837 V 6.518 C -8.761,6.373 -4.42,6.685 0,6.808 V 0" /></g><g
           transform="translate(232.8638,69.459)"
           id="g120"><path
             id="path122"
             style="fill:#005daa;fill-opacity:1;fill-rule:nonzero;stroke:none"
             d="m 0,0 h 0.127 c 2.283,4.485 5.478,6.974 10.609,6.974 9.468,0 8.678,-6.768 8.678,-13.953 V -20.41 h 4.485 v -1.808 H 7.392 v 1.808 h 4.485 v 13.08 c 0,6.746 0.707,11.688 -4.046,11.688 -3.077,0 -5.838,-3.34 -6.918,-6.039 C 0,-4.069 0,-7.414 0,-10.82 v -9.59 h 4.464 v -1.808 h -16.859 v 1.808 h 4.837 V 4.714 h -4.837 V 6.518 C -8.761,6.373 -4.42,6.685 0,6.808 V 0" /></g><g
           transform="translate(261.4116,74.1729)"
           id="g124"><path
             id="path126"
             style="fill:#005daa;fill-opacity:1;fill-rule:nonzero;stroke:none"
             d="M 0,0 H -3.547 V 1.804 H 13.062 V 0 H 8.432 L 16.486,-17.649 23.381,0 H 18.149 V 1.804 H 29.548 V 0 h -3.986 l -12.79,-32.744 c -1.518,-3.84 -4.424,-11.17 -9.283,-11.17 -2.032,0 -3.985,1.659 -3.985,3.696 0,2.115 1.431,3.695 3.489,3.695 1.804,0 2.449,-0.438 3.551,-1.725 0.496,-0.663 0.725,-2.032 3.051,3.178 1.224,2.699 2.387,5.46 3.177,8.138 L 0,0" /></g><g
           transform="translate(320.1919,68.2124)"
           id="g128"><path
             id="path130"
             style="fill:#005daa;fill-opacity:1;fill-rule:nonzero;stroke:none"
             d="m 0,0 c 0,3.573 -1.659,6.768 -5.5,6.768 -4.591,0 -8.225,-4.152 -8.576,-8.638 v -10.174 c 0,-4.503 4.069,-8.572 8.493,-8.572 4.152,0 5.583,3.134 5.583,6.829 z m -21.902,25.703 h -5.254 v 1.809 c 4.442,-0.128 8.804,0.289 13.08,1.097 V 2.844 c 1.891,3.196 4.942,5.377 8.638,5.377 8.199,0 14.015,-7.703 14.015,-15.468 0,-7.558 -5.671,-14.822 -13.787,-14.822 -3.573,0 -6.975,2.115 -8.866,5.021 v -4.503 c -4.424,0.807 -8.783,0.579 -13.08,0.579 v 1.808 h 5.254 v 44.867" /></g><g
           transform="translate(345.667,68.2124)"
           id="g132"><path
             id="path134"
             style="fill:#005daa;fill-opacity:1;fill-rule:nonzero;stroke:none"
             d="m 0,0 c 2.326,4.007 4.859,8.221 10.174,8.221 2.827,0 5.794,-1.453 5.794,-4.732 0,-2.826 -1.953,-4.069 -4.569,-4.069 -1.743,0 -3.485,1.537 -3.485,3.341 0,0.289 0.061,0.728 0.145,1.101 C 8.265,5.025 8.348,5.438 7.541,5.438 6.167,5.438 5.442,4.714 4.508,3.779 1.747,1.018 0,-2.888 0,-12.396 v -6.768 h 6.54 v -1.808 h -18.663 v 1.808 h 4.275 V 5.96 h -4.776 V 7.764 C -8.862,7.62 -4.42,7.931 0,8.054 V 0" /></g><g
           transform="translate(380.4868,74.9805)"
           id="g136"><path
             id="path138"
             style="fill:#005daa;fill-opacity:1;fill-rule:nonzero;stroke:none"
             d="m 0,0 c -7.12,0 -6.624,-5.667 -6.624,-13.87 0,-9.445 0.145,-13.514 6.624,-13.514 6.457,0 6.605,4.069 6.605,13.514 C 6.605,-5.667 7.102,0 0,0 m 0,1.453 c 8.203,0 15.239,-7.203 15.239,-15.323 0,-8.138 -7.036,-14.967 -15.239,-14.967 -8.221,0 -15.262,6.829 -15.262,14.967 0,8.12 7.041,15.323 15.262,15.323" /></g><g
           transform="translate(416.4692,74.9805)"
           id="g140"><path
             id="path142"
             style="fill:#005daa;fill-opacity:1;fill-rule:nonzero;stroke:none"
             d="m 0,0 c -7.119,0 -6.623,-5.667 -6.623,-13.87 0,-9.445 0.145,-13.514 6.623,-13.514 6.457,0 6.602,4.069 6.602,13.514 C 6.602,-5.667 7.102,0 0,0 m 0,1.453 c 8.204,0 15.24,-7.203 15.24,-15.323 0,-8.138 -7.036,-14.967 -15.24,-14.967 -8.199,0 -15.239,6.829 -15.239,14.967 0,8.12 7.04,15.323 15.239,15.323" /></g><g
           transform="translate(454.3398,75.9766)"
           id="g144"><path
             id="path146"
             style="fill:#005daa;fill-opacity:1;fill-rule:nonzero;stroke:none"
             d="M 0,0 H 15.617 V -1.804 H 9.222 L 1.225,-9.507 14.866,-26.928 h 2.844 v -1.808 H 1.519 v 1.808 h 4.13 l -11.087,14.16 11.46,10.964 H 0 Z m -18.808,-28.736 v 1.808 h 4.648 v 44.867 h -5.232 v 1.809 c 4.442,-0.128 8.783,0.289 13.08,1.097 v -47.773 h 4.486 v -1.808 h -16.982" /></g><g
           transform="translate(41.0591,78.7993)"
           id="g148"><path
             id="path150"
             style="fill:#8dc63f;fill-opacity:1;fill-rule:nonzero;stroke:none"
             d="m 0,0 c -7.664,9.884 -23.232,21.138 -28.135,23.649 l 0.189,0.355 c 2.927,-1.352 5.794,-2.989 8.532,-4.797 -0.645,0.812 -1.04,1.703 -1.202,2.677 -0.25,1.475 -0.294,2.682 -0.751,3.367 l 0.189,0.206 c 1.431,-0.645 2.428,-1.909 2.739,-3.884 0.25,-1.475 0.228,-2.862 1.102,-3.863 1.909,-1.347 3.757,-2.778 5.482,-4.275 -0.667,1.141 -1.102,2.432 -1.124,3.924 -0.018,1.87 0.145,3.885 -0.373,4.92 l 0.167,0.189 c 1.743,-0.979 2.555,-2.971 2.555,-5.087 0.022,-2.037 -0.334,-4.152 0.623,-5.566 l -0.022,-0.022 c 1.909,-1.742 3.717,-3.528 5.337,-5.333 -0.645,1.388 -0.957,2.99 -0.768,4.732 0.228,2.077 0.518,3.986 0.123,5.131 l 0.206,0.163 C -3.384,15.033 -2.677,12.79 -2.971,9.801 -3.2,7.602 -3.674,5.921 -2.805,4.257 -1.703,2.927 -0.645,1.602 0.25,0.312 Z m -36.022,26.95 c 4.898,-4.771 9.239,-22.943 14.032,-28.298 5.733,-6.373 23.922,-1.909 23.922,-1.909 0,0 2.449,19.431 -1.892,25.787 -5.645,8.181 -23.21,6.996 -36.062,4.42" /></g><g
           transform="translate(78.6792,104.1118)"
           id="g152"><path
             id="path154"
             style="fill:#8dc63f;fill-opacity:1;fill-rule:nonzero;stroke:none"
             d="m 0,0 0.355,-0.189 c -1.496,-2.866 -3.282,-5.644 -5.231,-8.304 0.851,0.601 1.786,0.956 2.761,1.079 1.474,0.167 2.655,0.145 3.384,0.58 L 1.453,-7.019 C 0.75,-8.41 -0.558,-9.367 -2.554,-9.595 c -1.471,-0.162 -2.862,-0.083 -3.903,-0.891 -1.452,-1.826 -2.949,-3.612 -4.525,-5.276 1.142,0.623 2.471,1.001 3.964,0.935 1.87,-0.061 3.884,-0.329 4.942,0.145 l 0.167,-0.206 c -1.058,-1.681 -3.095,-2.388 -5.21,-2.283 -2.015,0.084 -4.113,0.54 -5.588,-0.355 l -0.017,0.022 c -1.831,-1.804 -3.696,-3.529 -5.566,-5.065 1.414,0.561 3.011,0.807 4.754,0.539 2.054,-0.333 3.946,-0.728 5.109,-0.373 l 0.167,-0.21 c -1.536,-1.681 -3.823,-2.283 -6.791,-1.848 -2.181,0.334 -3.84,0.895 -5.543,0.105 -1.391,-1.036 -2.761,-2.037 -4.091,-2.866 l -0.312,0.272 C -14.761,-19.769 -2.739,-4.753 0,0 M -2.489,-28.074 C 5.96,-22.842 5.627,-5.232 3.678,7.721 -1.348,3.072 -19.703,-0.395 -25.286,-4.92 c -6.624,-5.421 -3.055,-23.794 -3.055,-23.794 0,0 19.313,-3.407 25.852,0.64" /></g><g
           transform="translate(72.4512,41.2407)"
           id="g156"><path
             id="path158"
             style="fill:#8dc63f;fill-opacity:1;fill-rule:nonzero;stroke:none"
             d="M 0,0 C 0.228,-1.453 0.29,-2.656 0.746,-3.34 L 0.562,-3.551 C -0.869,-2.906 -1.87,-1.642 -2.199,0.312 -2.449,1.786 -2.427,3.2 -3.301,4.196 -5.188,5.543 -7.036,6.957 -8.783,8.449 -8.098,7.33 -7.659,6.022 -7.642,4.547 -7.62,2.66 -7.765,0.645 -7.286,-0.396 l -0.167,-0.166 c -1.725,0.979 -2.533,2.95 -2.555,5.087 0,2.015 0.356,4.157 -0.601,5.566 l 0.022,0.021 c -1.913,1.743 -3.718,3.53 -5.337,5.316 0.623,-1.391 0.957,-2.971 0.768,-4.714 -0.228,-2.098 -0.518,-4.007 -0.123,-5.127 L -15.49,5.398 c -1.742,1.454 -2.449,3.718 -2.159,6.685 0.211,2.204 0.707,3.907 -0.167,5.544 -1.119,1.33 -2.155,2.66 -3.073,3.946 l 0.251,0.333 C -12.957,12.022 2.616,0.768 7.497,-1.765 L 7.33,-2.116 C 4.38,-0.769 1.536,0.873 -1.225,2.699 -0.562,1.87 -0.167,0.974 0,0 m 1.352,23.254 c -5.711,6.373 -23.9,1.892 -23.9,1.892 0,0 -2.471,-19.436 1.888,-25.77 5.649,-8.177 23.214,-7.018 36.066,-4.441 -4.92,4.797 -9.239,22.964 -14.054,28.319" /></g><g
           transform="translate(14.2104,37.8169)"
           id="g160"><path
             id="path162"
             style="fill:#8dc63f;fill-opacity:1;fill-rule:nonzero;stroke:none"
             d="M 0,0 -0.351,0.206 C 1.146,3.072 2.91,5.855 4.881,8.511 4.007,7.887 3.094,7.536 2.12,7.431 0.645,7.247 -0.558,7.264 -1.264,6.852 l -0.207,0.184 c 0.725,1.391 2.033,2.326 4.008,2.554 1.492,0.189 2.883,0.084 3.902,0.913 h 0.022 c 1.453,1.83 2.945,3.613 4.525,5.276 C 9.823,15.156 8.493,14.783 7.018,14.844 5.153,14.906 3.138,15.156 2.076,14.7 l -0.184,0.184 c 1.079,1.685 3.094,2.387 5.232,2.304 2.014,-0.079 4.112,-0.54 5.583,0.334 V 17.5 c 1.848,1.83 3.717,3.533 5.587,5.087 -1.431,-0.579 -3.011,-0.808 -4.753,-0.54 -2.077,0.334 -3.946,0.707 -5.109,0.373 l -0.167,0.211 c 1.514,1.681 3.823,2.282 6.768,1.826 2.203,-0.312 3.863,-0.874 5.544,-0.105 1.391,1.062 2.76,2.036 4.09,2.888 l 0.312,-0.273 C 14.743,19.787 2.743,4.775 0,0 M 2.493,28.091 C -5.956,22.859 -5.627,5.232 -3.674,-7.703 1.33,-3.055 19.708,0.395 25.269,4.938 c 6.645,5.398 3.055,23.798 3.055,23.798 0,0 -19.291,3.402 -25.831,-0.645" /></g></g></g></g></svg>